<svg xmlns="http://www.w3.org/2000/svg" viewBox="0 0 200 200" width="100%" height="100%">
    <polygon points="100,100 61.03,77.5 100,55 138.97,77.5" fill="#060B17" />
    <polygon points="100,100 61.03,77.5 61.03,122.5 100,145" fill="#0A0F1E" />
    <polygon points="100,100 100,145 138.97,122.5 138.97,77.5" fill="#16203B" />
    <polygon points="61.03,77.5 30.72,60 100,20 169.28,60 138.97,77.5 100,55" fill="#E2CA76" />
    <polygon points="100,145 61.03,122.5 61.03,77.5 30.72,60 30.72,140 100,180" fill="#C9A84C" />
    <polygon points="100,145 138.97,122.5 138.97,77.5 169.28,60 169.28,140 100,180" fill="#8A6D24" />
    <polygon points="100,100 82.68,90 100,80 117.32,90" fill="#E2CA76" />
    <polygon points="100,100 82.68,90 82.68,110 100,120" fill="#FFFFFF" />
    <polygon points="100,100 100,120 117.32,110 117.32,90" fill="#C9A84C" />
</svg>